D:\school\WTK\thesis\model\3dpredictsim\Results\debug_batch\Pog_s1_tmt_aCst_d00_k1000_ig24_pas_GRF.mot
nRows=20
nColumns=19

name D:\school\WTK\thesis\model\3dpredictsim\Results\debug_batch\Pog_s1_tmt_aCst_d00_k1000_ig24_pas_GRF.mot
datacolumns 19
datarows 20
range 0.0000000000 0.2102217637
endheader
time 	ground_force_vx	ground_force_vy	ground_force_vz	ground_force_px	ground_force_py	ground_force_pz	1_ground_force_vx	1_ground_force_vy	1_ground_force_vz	1_ground_force_px	1_ground_force_py	1_ground_force_pz	ground_torque_x	ground_torque_y	ground_torque_z	1_ground_torque_x	1_ground_torque_y	1_ground_torque_z
        0.0000000000	      -73.5779951882	       59.4594133635	       26.3565523077	        0.1741635828	        0.0000000000	        0.0386278825	      101.7335192689	      533.1601172558	       -3.2777958335	       -0.3108581050	        0.0000000000	       -0.0357741375	        0.0000000000	        0.0000000000	        0.0000000000	        0.0000000000	        0.0000000000	        0.0000000000	
        0.0110643034	     -116.2698455388	      131.5684385216	       68.2870922403	        0.1818307834	        0.0000000000	        0.0362893446	       86.8618446388	      456.3247747648	       -7.1910713105	       -0.3077113772	        0.0000000000	       -0.0349596347	        0.0000000000	        0.0000000000	        0.0000000000	        0.0000000000	        0.0000000000	        0.0000000000	
        0.0221286067	      -44.5558106570	      261.3108249149	       34.5815253097	        0.1875226665	        0.0000000000	        0.0338473711	       69.9813759971	      371.3495405746	       -9.0569182623	       -0.3031354818	        0.0000000000	       -0.0334693653	        0.0000000000	        0.0000000000	        0.0000000000	        0.0000000000	        0.0000000000	        0.0000000000	
        0.0331929101	      -37.2759004866	      406.0158865963	        5.5677057280	        0.1907963821	        0.0000000000	        0.0335773025	       47.6064684678	      278.5389712738	       -5.8584942970	       -0.2957287423	        0.0000000000	       -0.0304787326	        0.0000000000	        0.0000000000	        0.0000000000	        0.0000000000	        0.0000000000	        0.0000000000	
        0.0442572134	      -66.6736088823	      581.3343252614	       -4.0363571778	        0.1983766165	        0.0000000000	        0.0357871595	       20.5921667398	      181.8733466798	       -7.4778701359	       -0.2820893546	        0.0000000000	       -0.0243184932	        0.0000000000	        0.0000000000	        0.0000000000	        0.0000000000	        0.0000000000	        0.0000000000	
        0.0553215168	      -94.1194586520	      728.9634213258	      -10.1785165458	        0.2052732963	        0.0000000000	        0.0378602723	        4.6241136400	      135.2521036185	      -11.8157955954	       -0.2735139461	        0.0000000000	       -0.0199720260	        0.0000000000	        0.0000000000	        0.0000000000	        0.0000000000	        0.0000000000	        0.0000000000	
        0.0663858201	     -106.5722687678	      803.5536353179	      -11.8845779389	        0.2099687419	        0.0000000000	        0.0391555565	        2.0316045722	      103.8737772703	      -12.3652493357	       -0.2730407172	        0.0000000000	       -0.0200729917	        0.0000000000	        0.0000000000	        0.0000000000	        0.0000000000	        0.0000000000	        0.0000000000	
        0.0774501235	     -105.6877208631	      820.4918740665	      -12.4317371853	        0.2134030101	        0.0000000000	        0.0399384754	       -2.2368066320	       67.3164280817	      -11.3293896329	       -0.2725972560	        0.0000000000	       -0.0201264830	        0.0000000000	        0.0000000000	        0.0000000000	        0.0000000000	        0.0000000000	        0.0000000000	
        0.0885144268	      -99.1531390855	      810.0090415197	      -12.4990327344	        0.2164986919	        0.0000000000	        0.0403949786	       -7.9209606059	       27.6455923202	       -5.7134643843	       -0.2729262092	        0.0000000000	       -0.0198460690	        0.0000000000	        0.0000000000	        0.0000000000	        0.0000000000	        0.0000000000	        0.0000000000	
        0.0995787302	      -90.0840742528	      792.9123495094	      -13.0552248254	        0.2197983604	        0.0000000000	        0.0406103919	        0.1055416326	       -0.1043450543	        0.0022411255	        0.0000000000	        0.0000000000	        0.0000000000	        0.0000000000	        0.0000000000	        0.0000000000	        0.0000000000	        0.0000000000	        0.0000000000	
        0.1106430335	      -78.5890300032	      767.7962109017	      -14.0165584964	        0.2233125094	        0.0000000000	        0.0407101723	        0.0002037443	       -0.0001649549	       -0.0000115967	        0.0000000000	        0.0000000000	        0.0000000000	        0.0000000000	        0.0000000000	        0.0000000000	        0.0000000000	        0.0000000000	        0.0000000000	
        0.1217073369	      -68.8599689980	      740.6007416967	      -14.5466509738	        0.2275775916	        0.0000000000	        0.0407029146	        0.0000892448	       -0.0000627247	       -0.0000066822	        0.0000000000	        0.0000000000	        0.0000000000	        0.0000000000	        0.0000000000	        0.0000000000	        0.0000000000	        0.0000000000	        0.0000000000	
        0.1327716402	      -59.8013020498	      712.7978852759	      -14.9704593220	        0.2321739396	        0.0000000000	        0.0406231381	        0.0008713944	       -0.0005488269	       -0.0000725141	        0.0000000000	        0.0000000000	        0.0000000000	        0.0000000000	        0.0000000000	        0.0000000000	        0.0000000000	        0.0000000000	        0.0000000000	
        0.1438359436	      -50.6547743821	      684.0976236959	      -15.5267449272	        0.2366967595	        0.0000000000	        0.0405804371	        0.0042865656	       -0.0024746653	       -0.0003776444	        0.0000000000	        0.0000000000	        0.0000000000	        0.0000000000	        0.0000000000	        0.0000000000	        0.0000000000	        0.0000000000	        0.0000000000	
        0.1549002469	      -42.2919960343	      657.3104526090	      -16.1496494945	        0.2411879325	        0.0000000000	        0.0405943363	       -0.0314483666	        0.0168967347	        0.0028785077	        0.0000000000	        0.0000000000	        0.0000000000	        0.0000000000	        0.0000000000	        0.0000000000	        0.0000000000	        0.0000000000	        0.0000000000	
        0.1659645503	      -35.0549487845	      634.2476688780	      -16.6385621167	        0.2456536777	        0.0000000000	        0.0406501524	       -0.0211827928	        0.0107105269	        0.0019955820	        0.0000000000	        0.0000000000	        0.0000000000	        0.0000000000	        0.0000000000	        0.0000000000	        0.0000000000	        0.0000000000	        0.0000000000	
        0.1770288536	      -28.8159880075	      615.2979297279	      -17.1870836421	        0.2502378568	        0.0000000000	        0.0407276353	       -0.0147595166	        0.0070852144	        0.0014194388	        0.0000000000	        0.0000000000	        0.0000000000	        0.0000000000	        0.0000000000	        0.0000000000	        0.0000000000	        0.0000000000	        0.0000000000	
        0.1880931570	      -23.7137869642	      600.9107579506	      -17.5614997504	        0.2551462584	        0.0000000000	        0.0408023560	       -0.0132481974	        0.0060831551	        0.0012891503	        0.0000000000	        0.0000000000	        0.0000000000	        0.0000000000	        0.0000000000	        0.0000000000	        0.0000000000	        0.0000000000	        0.0000000000	
        0.1991574603	      -20.0005882034	      591.1040431825	      -17.5290467841	        0.2603676558	        0.0000000000	        0.0408529931	       -0.0158517136	        0.0070021409	        0.0015480652	        0.0000000000	        0.0000000000	        0.0000000000	        0.0000000000	        0.0000000000	        0.0000000000	        0.0000000000	        0.0000000000	        0.0000000000	
        0.2102217637	      -16.9190329729	      585.0160137247	      -17.4785929217	        0.2659343432	        0.0000000000	        0.0408570004	       -0.0243580546	        0.0103993668	        0.0023658530	        0.0000000000	        0.0000000000	        0.0000000000	        0.0000000000	        0.0000000000	        0.0000000000	        0.0000000000	        0.0000000000	        0.0000000000	
